# xmcd
#
# Track frame offsets:
#	150
#	51378
#	72147
#	103072
#	133597
#	148862
#	192169
#	287173
#	314265
#
# Disc length: 4197 seconds
#
# Revision: 1
# Processed by: cddbd v1.5.2PL0 Copyright (c) Steve Scherf et al.
# Submitted via: audiograbber 1.83.01
#
DISCID=8d106309
DTITLE=Grateful Dead - 70-11-05A Capitol Theatre, Port Chester NY
DYEAR=1900
DGENRE=
TTITLE0=Hard To Handle
TTITLE1=Sitting On Top Of The World
TTITLE2=Mama Tried
TTITLE3=Truckin'
TTITLE4=Drums
TTITLE5=The Other One
TTITLE6=Dark Star
TTITLE7=St Stephen
TTITLE8=Drums
EXTD=
EXTT0=
EXTT1=
EXTT2=
EXTT3=
EXTT4=
EXTT5=
EXTT6=
EXTT7=
EXTT8=
PLAYORDER=
